<svg width="250" height="38" viewBox="0 0 250 38" fill="none" xmlns="http://www.w3.org/2000/svg">
<g clip-path="url(#clip0_1090_114401)">
<path d="M31.9617 10.3909C31.9617 4.65215 27.311 -3.16249e-05 21.5741 -3.16249e-05C15.8372 -3.16249e-05 11.1865 4.65215 11.1865 10.3909C11.1865 16.1296 15.8372 20.7817 21.5741 20.7817C27.311 20.7817 31.9617 16.1296 31.9617 10.3909Z" fill="#FDD92A"/>
<path d="M19.177 28.7748H3.19613V12.7888H19.177V28.7748ZM21.8008 9.59162H0.572309C0.256261 9.59162 0 9.84788 0 10.1641V31.3994C0 31.7157 0.256261 31.9719 0.572309 31.9719H21.8008C22.117 31.9719 22.3732 31.7157 22.3732 31.3994V10.1641C22.3732 9.84788 22.117 9.59162 21.8008 9.59162Z" fill="black"/>
<path d="M249.401 14.9273C249.257 14.7552 249.028 14.6692 248.715 14.6692H248.558H245.694H245.602C245.579 14.6692 245.563 14.6754 245.541 14.6762C245.451 14.6813 245.37 14.6906 245.297 14.7044C245.285 14.707 245.268 14.7059 245.256 14.709C245.254 14.7096 245.251 14.7117 245.249 14.7124C245.108 14.7442 244.997 14.7928 244.923 14.8612C244.916 14.8678 244.911 14.8784 244.904 14.8859C244.874 14.912 244.845 14.9386 244.818 14.9694V15.0127C244.75 15.1531 244.714 15.3496 244.714 15.6089V17.9923V24.3564C244.714 24.7354 244.642 25.0884 244.498 25.415C244.354 25.7412 244.16 26.026 243.916 26.2685C243.672 26.5111 243.386 26.7006 243.06 26.8376C242.733 26.9744 242.386 27.0426 242.02 27.0426C242.013 27.0426 242.007 27.0406 242 27.0406C241.994 27.0406 241.987 27.0426 241.981 27.0426C241.614 27.0426 241.268 26.9744 240.941 26.8376C240.614 26.7006 240.329 26.5111 240.085 26.2685C239.841 26.026 239.647 25.7412 239.503 25.415C239.359 25.0884 239.287 24.7354 239.287 24.3564V17.9923V15.6089C239.287 15.2385 239.217 14.9889 239.078 14.8612C238.939 14.7331 238.681 14.6692 238.307 14.6692H235.286C234.972 14.6692 234.743 14.7552 234.599 14.9273C234.456 15.0992 234.384 15.3529 234.384 15.6883V17.9923V24.0496V24.3564C234.384 24.3762 234.394 24.3997 234.402 24.422C234.444 25.3636 234.637 26.2506 235 27.0752C235.412 28.0077 235.966 28.8216 236.664 29.515C237.362 30.2084 238.177 30.7501 239.111 31.1418C240.021 31.5222 240.984 31.7135 242 31.7237C242.937 31.7143 243.827 31.5433 244.673 31.2198C244.567 31.5933 244.38 31.9264 244.106 32.2172C243.822 32.5175 243.496 32.7709 243.125 32.9787C242.754 33.1857 242.356 33.3426 241.929 33.448C241.501 33.5543 241.092 33.6072 240.7 33.6072C240.464 33.6072 240.2 33.5962 239.908 33.5742C239.616 33.5517 239.32 33.5028 239.019 33.4282C238.719 33.3535 238.426 33.2514 238.143 33.1239C237.86 32.9958 237.609 32.8265 237.391 32.6147C237.104 32.4029 236.864 32.2967 236.672 32.2967C236.55 32.2967 236.437 32.3296 236.332 32.3961C236.228 32.4625 236.114 32.5613 235.992 32.6935L234.75 34.4274C234.584 34.6742 234.502 34.9085 234.502 35.1286C234.502 35.3054 234.547 35.4663 234.639 35.6117C234.73 35.7577 234.842 35.8783 234.972 35.9756C235.356 36.3196 235.798 36.6219 236.299 36.8823C236.8 37.1427 237.319 37.3566 237.855 37.5244C238.391 37.6916 238.93 37.8172 239.47 37.9014C240.011 37.985 240.516 38.0269 240.987 38.0269C242.199 38.0269 243.332 37.8329 244.387 37.445C245.441 37.0564 246.355 36.4916 247.126 35.7508C247.898 35.01 248.506 34.1012 248.95 33.0245C249.395 31.9479 249.617 30.7218 249.617 29.3456V24.3564V24.0496V23.0147V17.9923V15.874V15.6883C249.617 15.3529 249.545 15.0992 249.401 14.9273Z" fill="black"/>
<path d="M218.966 23.2948C218.966 23.8732 219.059 24.4145 219.245 24.9188C219.43 25.4227 219.695 25.8588 220.04 26.227C220.384 26.5952 220.798 26.8866 221.283 27.1011C221.768 27.3164 222.305 27.4236 222.894 27.4236C223.501 27.4236 224.065 27.3164 224.586 27.1011C225.107 26.8866 225.56 26.5952 225.945 26.227C226.33 25.8588 226.631 25.4227 226.849 24.9188C227.066 24.4145 227.175 23.8732 227.175 23.2948C227.175 22.734 227.066 22.1991 226.849 21.6904C226.631 21.1824 226.33 20.7351 225.945 20.3492C225.56 19.9639 225.107 19.6591 224.586 19.4355C224.065 19.2122 223.501 19.1001 222.894 19.1001C222.305 19.1001 221.768 19.2122 221.283 19.4355C220.798 19.6591 220.384 19.9639 220.04 20.3492C219.695 20.7351 219.43 21.1824 219.245 21.6904C219.059 22.1991 218.966 22.734 218.966 23.2948ZM232.353 30.6582C232.353 30.8072 232.326 30.9496 232.272 31.0854C232.217 31.2216 232.127 31.3288 232 31.4074C231.9 31.5042 231.782 31.5654 231.646 31.5917C231.511 31.6179 231.393 31.6311 231.293 31.6311H228.616C228.425 31.6311 228.271 31.607 228.154 31.559C228.036 31.5107 227.941 31.4429 227.868 31.355C227.795 31.2676 227.734 31.1599 227.685 31.0331C227.635 30.906 227.583 30.7678 227.528 30.6186L227.352 30.0269C227.107 30.2639 226.828 30.4961 226.516 30.7239C226.203 30.9519 225.859 31.1559 225.483 31.3354C225.107 31.515 224.704 31.6595 224.273 31.7695C223.843 31.8787 223.397 31.9336 222.935 31.9336C222.11 31.9336 221.319 31.8328 220.563 31.6311C219.806 31.4296 219.099 31.1427 218.443 30.7698C217.786 30.3974 217.19 29.9503 216.656 29.4286C216.121 28.9073 215.661 28.3265 215.276 27.6864C214.891 27.0468 214.594 26.3562 214.386 25.6154C214.177 24.8749 214.073 24.1012 214.073 23.2948C214.073 22.0766 214.304 20.9435 214.766 19.8957C215.228 18.8485 215.858 17.9368 216.656 17.1609C217.453 16.3849 218.391 15.7758 219.469 15.3331C220.547 14.8906 221.702 14.6692 222.935 14.6692C223.496 14.6692 224.02 14.7305 224.504 14.853C224.989 14.9761 225.433 15.1424 225.836 15.3528C226.239 15.5633 226.604 15.8153 226.93 16.1086C227.257 16.4025 227.542 16.7202 227.786 17.0621L228.181 15.8657C228.271 15.6467 228.346 15.469 228.405 15.3331C228.464 15.1973 228.527 15.0965 228.595 15.0308C228.663 14.9647 228.747 14.9212 228.847 14.899C228.946 14.8773 229.087 14.8663 229.268 14.8663H231.293C231.393 14.8663 231.511 14.8792 231.646 14.9059C231.782 14.9321 231.9 14.9933 232 15.0896C232.127 15.1863 232.217 15.2959 232.272 15.4186C232.326 15.5416 232.353 15.6814 232.353 15.8394V30.6582Z" fill="black"/>
<path d="M200.505 23.1492C200.505 23.7373 200.594 24.2878 200.773 24.8006C200.952 25.313 201.207 25.7564 201.539 26.1308C201.871 26.5053 202.27 26.8016 202.737 27.0197C203.203 27.2386 203.72 27.3476 204.288 27.3476C204.846 27.3476 205.372 27.2451 205.865 27.0398C206.358 26.835 206.788 26.5521 207.154 26.1909C207.521 25.8298 207.815 25.4043 208.038 24.9141C208.26 24.4238 208.385 23.898 208.411 23.3364V23.1492C208.411 22.579 208.306 22.0351 208.097 21.5177C207.887 21.0012 207.597 20.5463 207.226 20.154C206.855 19.7622 206.419 19.4522 205.917 19.2249C205.415 18.9978 204.872 18.8838 204.288 18.8838C203.72 18.8838 203.203 18.9978 202.737 19.2249C202.27 19.4522 201.871 19.7622 201.539 20.154C201.207 20.5463 200.952 21.0012 200.773 21.5177C200.594 22.0351 200.505 22.579 200.505 23.1492ZM208.162 29.9549C207.926 30.1955 207.658 30.4341 207.357 30.6702C207.056 30.9064 206.729 31.1178 206.375 31.3052C206.022 31.4924 205.642 31.6437 205.237 31.7598C204.831 31.8754 204.401 31.9336 203.947 31.9336C202.761 31.9336 201.668 31.7064 200.668 31.2518C199.669 30.7972 198.81 30.1755 198.09 29.3864C197.37 28.5979 196.807 27.6686 196.401 26.5988C195.996 25.5289 195.793 24.3791 195.793 23.1492C195.793 21.9104 195.996 20.7583 196.401 19.6928C196.807 18.628 197.37 17.7008 198.09 16.9119C198.81 16.1228 199.669 15.5035 200.668 15.0534C201.668 14.6033 202.761 14.3783 203.947 14.3783C204.427 14.3783 204.866 14.4205 205.263 14.5049C205.66 14.5898 206.022 14.7124 206.349 14.8725C206.676 15.0332 206.977 15.225 207.252 15.4477C207.527 15.6706 207.787 15.9157 208.031 16.183V10.6077C208.031 10.3224 208.116 10.0817 208.286 9.88551C208.457 9.68954 208.712 9.5915 209.052 9.5915H211.997C212.11 9.5915 212.23 9.61604 212.357 9.66487C212.484 9.71409 212.599 9.7833 212.704 9.87237C212.808 9.9613 212.894 10.0683 212.959 10.1932C213.024 10.3178 213.057 10.456 213.057 10.6077V30.5964C213.057 31.2831 212.704 31.626 211.997 31.626H209.432C209.257 31.626 209.122 31.6039 209.026 31.5592C208.93 31.5146 208.849 31.4502 208.784 31.3654C208.719 31.2809 208.66 31.174 208.607 31.0444C208.555 30.9153 208.489 30.7661 208.411 30.5964L208.162 29.9549Z" fill="black"/>
<path d="M178.879 15.1634C178.996 15.0653 179.119 15.0026 179.25 14.9759C179.38 14.9491 179.504 14.9356 179.621 14.9356H181.657C181.819 14.9356 181.958 14.9647 182.075 15.0226C182.192 15.0809 182.291 15.159 182.372 15.2571C182.453 15.3549 182.517 15.4661 182.567 15.5911C182.616 15.7155 182.664 15.8445 182.709 15.9781L182.992 17.1535C183.127 16.8778 183.345 16.5926 183.646 16.2985C183.947 16.0048 184.32 15.7377 184.765 15.4975C185.21 15.2571 185.724 15.059 186.309 14.903C186.893 14.7473 187.545 14.6692 188.264 14.6692C189.289 14.6692 190.204 14.8651 191.008 15.2571C191.813 15.6486 192.496 16.1831 193.058 16.8598C193.62 17.5367 194.047 18.3274 194.339 19.2322C194.631 20.137 194.777 21.1029 194.777 22.1294V30.9021C194.777 31.2418 194.703 31.4983 194.555 31.6724C194.406 31.8465 194.17 31.9336 193.847 31.9336H190.732C190.345 31.9336 190.08 31.8691 189.936 31.7393C189.793 31.6099 189.721 31.3574 189.721 30.9826V22.2635C189.721 21.8797 189.633 21.5155 189.458 21.1718C189.282 20.8281 189.051 20.5248 188.763 20.2611C188.475 19.9979 188.15 19.7902 187.786 19.6382C187.421 19.4867 187.051 19.4108 186.673 19.4108C186.35 19.4108 186.019 19.4822 185.682 19.6248C185.345 19.768 185.035 19.9663 184.751 20.221C184.468 20.4754 184.23 20.7748 184.037 21.1184C183.844 21.4621 183.734 21.8349 183.706 22.2365V30.9424C183.706 31.0942 183.677 31.2462 183.619 31.3978C183.56 31.5497 183.473 31.6658 183.356 31.746C183.239 31.8178 183.129 31.8665 183.025 31.8933C182.922 31.92 182.803 31.9336 182.668 31.9336H179.621C179.234 31.9336 178.955 31.8399 178.785 31.6522C178.614 31.4647 178.528 31.215 178.528 30.9021V15.9247C178.528 15.7558 178.567 15.6001 178.643 15.4575C178.719 15.315 178.825 15.2037 178.96 15.1235L178.879 15.1634Z" fill="black"/>
<path d="M165.048 23.2948C165.048 23.8732 165.138 24.4145 165.318 24.9188C165.498 25.4227 165.752 25.8588 166.08 26.227C166.409 26.5952 166.808 26.8866 167.277 27.1011C167.746 27.3164 168.274 27.4236 168.861 27.4236C169.431 27.4236 169.946 27.3164 170.406 27.1011C170.867 26.8866 171.257 26.5952 171.577 26.227C171.897 25.8588 172.142 25.4227 172.313 24.9188C172.484 24.4145 172.57 23.8732 172.57 23.2948C172.57 22.734 172.484 22.1991 172.313 21.6904C172.142 21.1824 171.897 20.7351 171.577 20.3492C171.257 19.9639 170.867 19.6591 170.406 19.4355C169.946 19.2122 169.431 19.1001 168.861 19.1001C168.274 19.1001 167.746 19.2122 167.277 19.4355C166.808 19.6591 166.409 19.9639 166.08 20.3492C165.752 20.7351 165.498 21.1824 165.318 21.6904C165.138 22.1991 165.048 22.734 165.048 23.2948ZM160.249 23.2948C160.249 22.4885 160.352 21.7125 160.558 20.9672C160.764 20.2223 161.053 19.5322 161.426 18.8965C161.799 18.2609 162.246 17.6824 162.767 17.1609C163.288 16.6392 163.869 16.1941 164.509 15.8261C165.149 15.4581 165.839 15.1731 166.58 14.9716C167.321 14.77 168.094 14.6692 168.901 14.6692C170.093 14.6692 171.213 14.8906 172.26 15.3331C173.308 15.7758 174.22 16.3849 174.995 17.1609C175.771 17.9368 176.385 18.8485 176.836 19.8957C177.288 20.9435 177.513 22.0766 177.513 23.2948C177.513 24.1012 177.41 24.8749 177.204 25.6154C176.998 26.3562 176.709 27.0468 176.336 27.6864C175.964 28.3265 175.517 28.9073 174.995 29.4286C174.474 29.9503 173.893 30.3974 173.253 30.7698C172.613 31.1427 171.927 31.4296 171.195 31.6311C170.463 31.8328 169.699 31.9336 168.901 31.9336C168.094 31.9336 167.321 31.8328 166.58 31.6311C165.839 31.4296 165.149 31.1427 164.509 30.7698C163.869 30.3974 163.288 29.9503 162.767 29.4286C162.246 28.9073 161.799 28.3265 161.426 27.6864C161.053 27.0468 160.764 26.3562 160.558 25.6154C160.352 24.8749 160.249 24.1012 160.249 23.2948Z" fill="black"/>
<path d="M134.194 15.1634C134.31 15.0653 134.434 15.0026 134.564 14.9759C134.693 14.9491 134.817 14.9356 134.933 14.9356H136.961C137.123 14.9356 137.261 14.9647 137.378 15.0226C137.494 15.0809 137.593 15.159 137.673 15.2571C137.754 15.3549 137.819 15.4661 137.868 15.5911C137.917 15.7155 137.964 15.8445 138.009 15.9781L138.291 17.1535C138.426 16.8778 138.618 16.5926 138.869 16.2985C139.12 16.0048 139.437 15.7377 139.823 15.4975C140.208 15.2571 140.667 15.059 141.2 14.903C141.732 14.7473 142.357 14.6692 143.073 14.6692C143.637 14.6692 144.15 14.7251 144.611 14.8364C145.073 14.9478 145.494 15.1125 145.874 15.3306C146.254 15.5488 146.602 15.8158 146.915 16.132C147.229 16.4481 147.524 16.8107 147.802 17.2204C147.972 16.9447 148.225 16.6551 148.561 16.3523C148.897 16.0495 149.297 15.7736 149.763 15.5242C150.228 15.2748 150.748 15.0702 151.321 14.9096C151.894 14.7493 152.503 14.6692 153.148 14.6692C154.169 14.6692 155.06 14.8651 155.821 15.2571C156.582 15.6486 157.216 16.1831 157.722 16.8598C158.228 17.5367 158.606 18.3274 158.857 19.2322C159.108 20.137 159.233 21.1029 159.233 22.1294V30.9021C159.233 31.2418 159.159 31.4983 159.011 31.6724C158.864 31.8465 158.629 31.9336 158.306 31.9336H155.203C154.818 31.9336 154.554 31.8691 154.411 31.7393C154.267 31.6099 154.196 31.3574 154.196 30.9826V22.1294C154.196 21.7458 154.136 21.3886 154.015 21.0582C153.894 20.7279 153.726 20.4398 153.511 20.1942C153.296 19.9486 153.034 19.7569 152.725 19.6182C152.416 19.4798 152.073 19.4108 151.697 19.4108C151.357 19.4108 151.034 19.4777 150.73 19.6115C150.426 19.7455 150.157 19.931 149.924 20.1675C149.691 20.404 149.505 20.6898 149.367 21.0244C149.228 21.3594 149.159 21.7277 149.159 22.1294V30.9021C149.159 31.2418 149.084 31.4983 148.937 31.6724C148.789 31.8465 148.554 31.9336 148.232 31.9336H147.949H147.842H145.129C144.744 31.9336 144.479 31.8691 144.336 31.7393C144.193 31.6099 144.121 31.3574 144.121 30.9826V22.1294C144.121 21.7458 144.065 21.3886 143.953 21.0582C143.841 20.7279 143.68 20.4398 143.469 20.1942C143.259 19.9486 143.004 19.7569 142.704 19.6182C142.404 19.4798 142.066 19.4108 141.69 19.4108C141.367 19.4108 141.052 19.4757 140.743 19.605C140.434 19.7344 140.156 19.9174 139.91 20.1541C139.664 20.3905 139.458 20.6742 139.292 21.0043C139.126 21.3348 139.03 21.7011 139.003 22.1027V30.9424C139.003 31.0942 138.974 31.2462 138.916 31.3978C138.858 31.5497 138.77 31.6658 138.654 31.746C138.537 31.8178 138.428 31.8665 138.325 31.8933C138.222 31.92 138.103 31.9336 137.969 31.9336H134.933C134.548 31.9336 134.27 31.8399 134.1 31.6522C133.93 31.4647 133.845 31.215 133.845 30.9021V15.9247C133.845 15.7558 133.883 15.6001 133.959 15.4575C134.035 15.315 134.141 15.2037 134.275 15.1235L134.194 15.1634Z" fill="black"/>
<path d="M126.52 14.9273C126.376 14.7552 126.147 14.6692 125.833 14.6692H125.676H122.812H122.721C122.697 14.6692 122.681 14.6754 122.659 14.6762C122.57 14.6813 122.488 14.6906 122.415 14.7044C122.403 14.707 122.386 14.7059 122.374 14.709C122.372 14.7096 122.369 14.7117 122.367 14.7124C122.226 14.7442 122.115 14.7928 122.041 14.8612C122.034 14.8678 122.029 14.8784 122.022 14.8859C121.992 14.912 121.963 14.9386 121.937 14.9694V15.0127C121.868 15.1531 121.832 15.3496 121.832 15.6089V17.9923V24.3564C121.832 24.7354 121.76 25.0884 121.616 25.415C121.472 25.7412 121.278 26.026 121.034 26.2685C120.79 26.5111 120.505 26.7006 120.178 26.8376C119.851 26.9744 119.504 27.0426 119.138 27.0426C119.132 27.0426 119.125 27.0406 119.119 27.0406C119.112 27.0406 119.105 27.0426 119.099 27.0426C118.733 27.0426 118.386 26.9744 118.059 26.8376C117.732 26.7006 117.447 26.5111 117.203 26.2685C116.959 26.026 116.765 25.7412 116.621 25.415C116.477 25.0884 116.405 24.7354 116.405 24.3564V17.9923V15.6089C116.405 15.2385 116.335 14.9889 116.196 14.8612C116.057 14.7331 115.799 14.6692 115.425 14.6692H112.404C112.09 14.6692 111.862 14.7552 111.718 14.9273C111.574 15.0992 111.502 15.3529 111.502 15.6883V17.9923V24.0496V24.3564C111.502 24.3762 111.512 24.3997 111.52 24.422C111.562 25.3636 111.755 26.2506 112.118 27.0752C112.53 28.0077 113.084 28.8216 113.782 29.515C114.48 30.2084 115.296 30.7501 116.23 31.1418C117.139 31.5222 118.102 31.7135 119.119 31.7237C120.056 31.7143 120.945 31.5433 121.792 31.2198C121.685 31.5933 121.498 31.9264 121.224 32.2172C120.94 32.5175 120.614 32.7709 120.243 32.9787C119.873 33.1857 119.474 33.3426 119.047 33.448C118.619 33.5543 118.21 33.6072 117.818 33.6072C117.582 33.6072 117.318 33.5962 117.026 33.5742C116.734 33.5517 116.438 33.5028 116.138 33.4282C115.837 33.3535 115.545 33.2514 115.261 33.1239C114.978 32.9958 114.727 32.8265 114.51 32.6147C114.222 32.4029 113.982 32.2967 113.79 32.2967C113.668 32.2967 113.555 32.3296 113.45 32.3961C113.346 32.4625 113.232 32.5613 113.11 32.6935L111.868 34.4274C111.702 34.6742 111.62 34.9085 111.62 35.1286C111.62 35.3054 111.666 35.4663 111.757 35.6117C111.849 35.7577 111.96 35.8783 112.09 35.9756C112.474 36.3196 112.916 36.6219 113.418 36.8823C113.919 37.1427 114.437 37.3566 114.974 37.5244C115.51 37.6916 116.048 37.8172 116.588 37.9014C117.129 37.985 117.635 38.0269 118.105 38.0269C119.317 38.0269 120.45 37.8329 121.505 37.445C122.56 37.0564 123.473 36.4916 124.244 35.7508C125.016 35.01 125.624 34.1012 126.069 33.0245C126.513 31.9479 126.735 30.7218 126.735 29.3456V24.3564V24.0496V23.0147V17.9923V15.874V15.6883C126.735 15.3529 126.663 15.0992 126.52 14.9273Z" fill="black"/>
<path d="M105.712 23.3161C105.712 22.754 105.621 22.2201 105.439 21.7146C105.257 21.2095 105.001 20.7678 104.672 20.3896C104.342 20.0123 103.947 19.7131 103.488 19.4934C103.028 19.274 102.52 19.1641 101.965 19.1641C101.419 19.1641 100.901 19.2674 100.411 19.4735C99.9207 19.6805 99.4911 19.9613 99.1226 20.3173C98.754 20.6733 98.455 21.0931 98.2252 21.576C97.9951 22.0597 97.8674 22.5737 97.841 23.1184V23.3161C97.841 23.8959 97.9495 24.441 98.1666 24.9506C98.3832 25.4601 98.6782 25.9018 99.0512 26.2752C99.4241 26.649 99.8621 26.9455 100.365 27.165C100.868 27.3849 101.402 27.4948 101.965 27.4948C102.52 27.4948 103.028 27.3849 103.488 27.165C103.947 26.9455 104.342 26.649 104.672 26.2752C105.001 25.9018 105.257 25.4601 105.439 24.9506C105.621 24.441 105.712 23.8959 105.712 23.3161ZM93.5607 15.0908C93.6737 14.9943 93.7905 14.9329 93.9122 14.9066C94.0335 14.8799 94.1506 14.8669 94.2635 14.8669H96.2281C96.3926 14.8669 96.5294 14.8932 96.6378 14.9461C96.7463 14.9988 96.8348 15.0711 96.9046 15.1635C96.974 15.2557 97.0322 15.3612 97.08 15.48C97.1277 15.5984 97.1735 15.728 97.2169 15.8687L97.7634 17.4636C98.0059 17.1473 98.2511 16.8244 98.4985 16.4947C98.7453 16.1653 99.038 15.8666 99.3766 15.5984C99.7148 15.3304 100.118 15.1087 100.586 14.9329C101.054 14.757 101.627 14.6694 102.304 14.6694C103.492 14.6694 104.587 14.8913 105.589 15.3349C106.59 15.7787 107.453 16.3892 108.178 17.1671C108.902 17.9449 109.468 18.8589 109.876 19.9087C110.283 20.959 110.487 22.0949 110.487 23.3161C110.487 24.5287 110.283 25.6622 109.876 26.7169C109.468 27.7716 108.902 28.6877 108.178 29.4651C107.453 30.243 106.59 30.8559 105.589 31.304C104.587 31.7522 103.492 31.9762 102.304 31.9762C101.74 31.9762 101.254 31.9082 100.847 31.772C100.439 31.6358 100.077 31.4577 99.7603 31.2382C99.4436 31.0184 99.1637 30.7767 98.9212 30.5129C98.6782 30.2495 98.4397 29.9859 98.2056 29.7221V36.0623C98.2056 36.3257 98.1275 36.55 97.9714 36.7346C97.8152 36.919 97.5723 37.0115 97.2428 37.0115H94.2635C94.1594 37.0115 94.0466 36.9893 93.9252 36.9456C93.8037 36.9012 93.6912 36.8401 93.5871 36.7609C93.483 36.6818 93.3961 36.5832 93.3267 36.4643C93.2572 36.3455 93.2227 36.2117 93.2227 36.0623V15.8424C93.2227 15.6667 93.2553 15.5216 93.3203 15.4072C93.3853 15.2933 93.4654 15.1877 93.5607 15.0908Z" fill="black"/>
<path d="M87.4319 23.3161C87.4319 22.754 87.3409 22.2201 87.1586 21.7146C86.9768 21.2095 86.7207 20.7678 86.3913 20.3896C86.0615 20.0123 85.6671 19.7131 85.2072 19.4934C84.7474 19.274 84.24 19.1641 83.6852 19.1641C83.1388 19.1641 82.6204 19.2674 82.1306 19.4735C81.6403 19.6805 81.211 19.9613 80.8424 20.3173C80.4738 20.6733 80.1747 21.0931 79.945 21.576C79.7149 22.0597 79.5872 22.5737 79.5609 23.1184V23.3161C79.5609 23.8959 79.6693 24.441 79.8864 24.9506C80.1029 25.4601 80.398 25.9018 80.771 26.2752C81.1439 26.649 81.5819 26.9455 82.085 27.165C82.588 27.3849 83.1213 27.4948 83.6852 27.4948C84.24 27.4948 84.7474 27.3849 85.2072 27.165C85.6671 26.9455 86.0615 26.649 86.3913 26.2752C86.7207 25.9018 86.9768 25.4601 87.1586 24.9506C87.3409 24.441 87.4319 23.8959 87.4319 23.3161ZM75.2805 15.0908C75.3934 14.9943 75.5104 14.9329 75.632 14.9066C75.7533 14.8799 75.8705 14.8669 75.9832 14.8669H77.948C78.1124 14.8669 78.2492 14.8932 78.3577 14.9461C78.4661 14.9988 78.5546 15.0711 78.6244 15.1635C78.6939 15.2557 78.7521 15.3612 78.7998 15.48C78.8475 15.5984 78.8932 15.728 78.9366 15.8687L79.4831 17.4636C79.7256 17.1473 79.9708 16.8244 80.2181 16.4947C80.4651 16.1653 80.7578 15.8666 81.0964 15.5984C81.4347 15.3304 81.8378 15.1087 82.3061 14.9329C82.7742 14.757 83.3469 14.6694 84.0234 14.6694C85.2116 14.6694 86.3067 14.8913 87.3083 15.3349C88.3101 15.7787 89.1732 16.3892 89.8976 17.1671C90.6214 17.9449 91.1873 18.8589 91.5953 19.9087C92.0029 20.959 92.2067 22.0949 92.2067 23.3161C92.2067 24.5287 92.0029 25.6622 91.5953 26.7169C91.1873 27.7716 90.6214 28.6877 89.8976 29.4651C89.1732 30.243 88.3101 30.8559 87.3083 31.304C86.3067 31.7522 85.2116 31.9762 84.0234 31.9762C83.4594 31.9762 82.9738 31.9082 82.5665 31.772C82.1585 31.6358 81.7963 31.4577 81.4799 31.2382C81.1634 31.0184 80.8834 30.7767 80.6409 30.5129C80.398 30.2495 80.1595 29.9859 79.9254 29.7221V36.0623C79.9254 36.3257 79.8472 36.55 79.6913 36.7346C79.5349 36.919 79.2921 37.0115 78.9626 37.0115H75.9832C75.8792 37.0115 75.7663 36.9893 75.6451 36.9456C75.5236 36.9012 75.4111 36.8401 75.3069 36.7609C75.2028 36.6818 75.116 36.5832 75.0465 36.4643C74.9771 36.3455 74.9424 36.2117 74.9424 36.0623V15.8424C74.9424 15.6667 74.9751 15.5216 75.0401 15.4072C75.1051 15.2933 75.1853 15.1877 75.2805 15.0908Z" fill="black"/>
<path d="M59.5247 23.2948C59.5247 23.8732 59.6177 24.4145 59.8034 24.9188C59.9888 25.4227 60.2538 25.8588 60.5984 26.227C60.9425 26.5952 61.357 26.8866 61.842 27.1011C62.3267 27.3164 62.8633 27.4236 63.4525 27.4236C64.0595 27.4236 64.6233 27.3164 65.1445 27.1011C65.6653 26.8866 66.1185 26.5952 66.5036 26.227C66.8886 25.8588 67.1898 25.4227 67.4073 24.9188C67.6247 24.4145 67.7335 23.8732 67.7335 23.2948C67.7335 22.734 67.6247 22.1991 67.4073 21.6904C67.1898 21.1824 66.8886 20.7351 66.5036 20.3492C66.1185 19.9639 65.6653 19.6591 65.1445 19.4355C64.6233 19.2122 64.0595 19.1001 63.4525 19.1001C62.8633 19.1001 62.3267 19.2122 61.842 19.4355C61.357 19.6591 60.9425 19.9639 60.5984 20.3492C60.2538 20.7351 59.9888 21.1824 59.8034 21.6904C59.6177 22.1991 59.5247 22.734 59.5247 23.2948ZM72.9117 30.6582C72.9117 30.8072 72.8845 30.9496 72.8303 31.0854C72.7758 31.2216 72.6853 31.3288 72.5583 31.4074C72.4587 31.5042 72.3409 31.5654 72.2051 31.5917C72.0691 31.6179 71.9513 31.6311 71.8517 31.6311H69.1743C68.9839 31.6311 68.8297 31.607 68.7122 31.559C68.5944 31.5107 68.4992 31.4429 68.4268 31.355C68.354 31.2676 68.2931 31.1599 68.2435 31.0331C68.1934 30.906 68.1413 30.7678 68.0869 30.6186L67.9102 30.0269C67.6656 30.2639 67.3868 30.4961 67.0743 30.7239C66.7618 30.9519 66.4174 31.1559 66.0415 31.3354C65.6653 31.515 65.2623 31.6595 64.832 31.7695C64.4016 31.8787 63.9553 31.9336 63.4932 31.9336C62.6688 31.9336 61.878 31.8328 61.1217 31.6311C60.365 31.4296 59.658 31.1427 59.0014 30.7698C58.3443 30.3974 57.7485 29.9503 57.2143 29.4286C56.6794 28.9073 56.2198 28.3265 55.8348 27.6864C55.4494 27.0468 55.1528 26.3562 54.9443 25.6154C54.7361 24.8749 54.6318 24.1012 54.6318 23.2948C54.6318 22.0766 54.8628 20.9435 55.3247 19.8957C55.7869 18.8485 56.4169 17.9368 57.2143 17.1609C58.0114 16.3849 58.9492 15.7758 60.0275 15.3331C61.1054 14.8906 62.2608 14.6692 63.4932 14.6692C64.055 14.6692 64.5781 14.7305 65.0628 14.853C65.5478 14.9761 65.9916 15.1424 66.3949 15.3528C66.7982 15.5633 67.1628 15.8153 67.4889 16.1086C67.8152 16.4025 68.1006 16.7202 68.3452 17.0621L68.7393 15.8657C68.8297 15.6467 68.9047 15.469 68.9635 15.3331C69.0225 15.1973 69.0859 15.0965 69.1538 15.0308C69.2217 14.9647 69.3054 14.9212 69.4051 14.899C69.505 14.8773 69.6452 14.8663 69.8268 14.8663H71.8517C71.9513 14.8663 72.0691 14.8792 72.2051 14.9059C72.3409 14.9321 72.4587 14.9933 72.5583 15.0896C72.6853 15.1863 72.7758 15.2959 72.8303 15.4186C72.8845 15.5416 72.9117 15.6814 72.9117 15.8394V30.6582Z" fill="black"/>
<path d="M43.4038 16.8202C43.5694 16.5727 43.7983 16.3275 44.0905 16.0843C44.3823 15.8412 44.7183 15.6247 45.0974 15.4346C45.4766 15.2445 45.8967 15.0898 46.3589 14.9703C46.8211 14.8512 47.3089 14.7913 47.8235 14.7913C48.8173 14.7913 49.678 14.9858 50.406 15.3749C51.1339 15.7638 51.7352 16.2944 52.2105 16.9663C52.6855 17.6384 53.0382 18.4236 53.2696 19.322C53.5005 20.2204 53.6161 21.1795 53.6161 22.1987V30.9094C53.6161 31.2467 53.5442 31.5013 53.4003 31.6742C53.2564 31.8471 53.0275 31.9336 52.714 31.9336H49.6932C49.3184 31.9336 49.061 31.8696 48.9219 31.7407C48.7824 31.6123 48.7128 31.3617 48.7128 30.9894V22.1987C48.7128 21.8178 48.6409 21.4631 48.497 21.135C48.3531 20.8071 48.1591 20.5211 47.9151 20.2772C47.6709 20.0333 47.3854 19.8429 47.0587 19.7052C46.7317 19.5678 46.3852 19.4994 46.019 19.4994C45.7051 19.4994 45.398 19.5637 45.0974 19.6922C44.7963 19.8207 44.5262 20.0025 44.2864 20.2373C44.0468 20.4721 43.8463 20.7537 43.6853 21.0815C43.5237 21.4097 43.4303 21.7734 43.4038 22.1722V30.9494C43.4038 31.1003 43.3753 31.2511 43.3189 31.4015C43.2624 31.5524 43.1772 31.6678 43.0639 31.7474C42.9504 31.8186 42.8438 31.8672 42.7436 31.8936C42.6433 31.9201 42.5279 31.9336 42.3973 31.9336H39.4422C39.0669 31.9336 38.7968 31.8406 38.6313 31.6542C38.4656 31.468 38.3828 31.2201 38.3828 30.9094V20.0844V19.991V16.0355V15.969V10.6022C38.3828 10.3009 38.4656 10.0571 38.6313 9.87086C38.7968 9.68489 39.0669 9.5915 39.4422 9.5915H42.3973C42.5976 9.5915 42.8198 9.66287 43.0639 9.80442C43.1772 9.88421 43.2624 9.99961 43.3189 10.1501C43.3753 10.3009 43.4038 10.4428 43.4038 10.5757V16.8202Z" fill="black"/>
</g>
<defs>
<clipPath id="clip0_1090_114401">
<rect width="250" height="38" fill="white"/>
</clipPath>
</defs>
</svg>
